<?xml version="1.0" encoding="UTF-8" standalone="no"?>
<svg
   width="319"
   height="96"
   viewBox="0 0 319 96"
   fill="none"
   version="1.1"
   id="svg28"
   sodipodi:docname="logo_white.svg"
   inkscape:version="1.4.3 (0d15f75, 2025-12-25)"
   xmlns:inkscape="http://www.inkscape.org/namespaces/inkscape"
   xmlns:sodipodi="http://sodipodi.sourceforge.net/DTD/sodipodi-0.dtd"
   xmlns="http://www.w3.org/2000/svg"
   xmlns:svg="http://www.w3.org/2000/svg">
  <sodipodi:namedview
     id="namedview28"
     pagecolor="#ffffff"
     bordercolor="#000000"
     borderopacity="0.25"
     inkscape:showpageshadow="2"
     inkscape:pageopacity="0.0"
     inkscape:pagecheckerboard="0"
     inkscape:deskcolor="#d1d1d1"
     inkscape:zoom="1.9617226"
     inkscape:cx="99.147557"
     inkscape:cy="82.835362"
     inkscape:window-width="1920"
     inkscape:window-height="1009"
     inkscape:window-x="-8"
     inkscape:window-y="-8"
     inkscape:window-maximized="1"
     inkscape:current-layer="g28" />
  <g
     clip-path="url(#clip0_325_1053)"
     id="g28">
    <path
       d="M271.166 32.9697L263.759 32.271L258.767 34.7551L252.65 33.6444L257.905 31.3337L252.071 30.1164L246.134 32.1708L250.723 33.2816L246.692 34.8268L242.038 33.6571L246.117 32.1724L239.545 30.2182L245.158 28.3356L239.639 26.5565L233.773 28.0731L238.059 29.7106L233.693 31.0346L229.13 29.2666L233.725 28.0699L227.391 25.3009L232.843 23.8337L226.862 20.974L221.44 22.2217L216.228 19.0119L221.482 17.8884C221.482 17.8884 218.576 16.0854 217.456 15.3231C215.982 15.5475 211.076 16.1045 208.231 16.2063C202.651 16.4068 197.432 16.418 190.588 15.5077C180.527 14.1694 165.765 10.7941 149.724 0.00317383C165.189 14.1837 187.132 26.7252 209.282 32.9728C230.034 38.8258 248.862 40.3074 269.565 38.3771C269.735 38.3612 269.908 38.3437 270.08 38.3261L273.557 36.0171L266.576 35.6431L271.168 32.9712L271.166 32.9697ZM200.265 20.6749L198.452 19.4384L200.898 19.1885L202.503 20.3502L200.265 20.6749ZM209.208 25.2611L206.219 23.3817L209.663 22.6656L212.571 24.4814L209.207 25.2611H209.208ZM210.688 20.1799L208.12 18.3356L211.352 17.8629L213.845 19.5084L210.687 20.1784L210.688 20.1799ZM220.016 30.8802L216.497 29.2491L219.872 28.4868L223.16 30.0638L220.016 30.8802ZM220.718 25.3152L217.001 23.2704L221.434 22.2328L225.372 24.3191L220.718 25.3152ZM231.652 34.7822L228.755 33.8131L231.32 32.9442L234.138 33.9245L231.652 34.7822ZM259.692 36.8271L255.575 36.2781L258.66 34.7774L262.706 35.3312L259.69 36.8287L259.692 36.8271Z"
       fill="#00B7E9"
       id="path1" />
    <path
       d="M146.463 4.8027C146.463 4.8027 152.645 10.5364 163.633 17.9632C163.687 17.9998 161.446 19.1503 158.42 20.6001C154.827 22.3219 150.115 24.4862 143.595 26.7888C138.055 28.7446 131.308 30.8834 123.014 32.6403C113.042 34.7536 100.863 36.329 85.9514 36.1508C85.9514 36.1508 122.649 37.0006 146.463 4.8027Z"
       fill="#00B7E9"
       id="path2" />
    <path
       d="M228.734 20.573L223.554 17.8773L227.946 16.9129L233.567 19.4495L228.734 20.573Z"
       fill="#00B7E9"
       id="path3" />
    <path
       d="M240.724 25.5412L235.006 23.3436L240.287 22.0211L246.694 23.9928L240.724 25.5412Z"
       fill="#00B7E9"
       id="path4" />
    <path
       d="M253.024 28.9738L247.519 27.5256L253.262 25.5969L259.218 26.7522L253.024 28.9738Z"
       fill="#00B7E9"
       id="path5" />
    <path
       d="M265.461 30.9836L259.693 30.1848L265.673 27.6132L271.378 28.1001L265.461 30.9836Z"
       fill="#00B7E9"
       id="path6" />
    <path
       d="M278.948 31.7698L272.504 31.5454L278.281 28.3388L284.253 28.2242L278.948 31.7698Z"
       fill="#00B7E9"
       id="path7" />
    <path
       d="M292.174 30.7466L286.306 31.1094L290.598 27.8137L296.139 27.201L292.174 30.7466Z"
       fill="#00B7E9"
       id="path8" />
    <path
       d="M284.272 33.1845C281.208 33.2689 277.634 33.2673 277.634 33.2673L273.576 35.9742H280.781L284.272 33.1845Z"
       fill="#00B7E9"
       id="path9" />
    <path
       d="M296.308 32.166C294.871 32.3506 293.271 32.5304 291.505 32.7007L288.552 35.3837C290.724 34.9047 292.791 34.3939 294.691 33.891L296.308 32.166Z"
       fill="#00B7E9"
       id="path10" />
    <path
       d="M305.136 28.1256L301.12 28.8496L303.948 25.8658L307.888 24.9667L305.136 28.1256Z"
       fill="#00B7E9"
       id="path11" />
    <path
       d="M230.696 15.8642L227.992 14.6198L230.546 14.1217L233.296 15.32L230.696 15.8642Z"
       fill="#00B7E9"
       id="path12" />
    <path
       d="M241.963 21.2478L237.746 19.8617L242.355 18.9196L246.499 20.0765L241.963 21.2478Z"
       fill="#00B7E9"
       id="path13" />
    <path
       d="M253.878 24.1822L249.496 23.2608L254.838 21.8716L259.017 22.5192L253.878 24.1822Z"
       fill="#00B7E9"
       id="path14" />
    <path
       d="M266.561 25.7815L261.933 25.3534L267.413 23.3563L271.817 23.5441L266.561 25.7815Z"
       fill="#00B7E9"
       id="path15" />
    <path
       d="M279.249 25.8913L274.632 26.0027L279.611 23.4311L284.092 23.1192L279.249 25.8913Z"
       fill="#00B7E9"
       id="path16" />
    <path
       d="M292.399 24.5673L287.594 25.2166L292.311 22.1087L296.652 21.3337L292.399 24.5673Z"
       fill="#00B7E9"
       id="path17" />
    <path
       d="M304.836 21.8843L300.291 23.0237L304.044 19.623L308.101 18.4502L304.836 21.8843Z"
       fill="#00B7E9"
       id="path18" />
    <path
       d="M316.81 17.5749L313.762 18.6713L316.166 15.9517L319 14.7805L316.81 17.5749Z"
       fill="#00B7E9"
       id="path19" />
    <path
       d="M0 46.3418H5.37515V58.1385C7.67833 57.2251 10.1474 56.7652 12.7823 56.7652C22.4257 56.7652 27.2474 61.3753 27.2474 70.594C27.2474 80.5814 22.1833 85.5734 12.055 85.5734C7.67833 85.5734 3.66053 85.1804 0 84.3943V46.3402L0 46.3418ZM5.37515 80.5543C7.13603 81.0858 9.27493 81.35 11.7934 81.35C18.5706 81.35 21.9616 77.701 21.9616 70.4031C21.9616 64.2382 18.8928 61.1573 12.752 61.1573C9.96396 61.1573 7.50448 61.6506 5.37515 62.6389V80.5543Z"
       fill="#003660"
       id="path20"
       style="fill:#ffffff" />
    <path
       d="M33.3196 85.5734V56.7652H36.9514L37.9084 60.4412C40.5816 57.9905 43.7955 56.7652 47.555 56.7652V60.9902C43.9136 60.9902 40.9612 62.2076 38.6947 64.6392V85.5718H33.3196V85.5734Z"
       fill="#003660"
       id="path21"
       style="fill:#ffffff" />
    <path
       d="M50.2856 71.1701C50.2856 61.5679 55.1265 56.7668 64.8097 56.7668C74.493 56.7668 79.3354 61.5679 79.3354 71.1701C79.3354 80.7723 74.493 85.5464 64.8097 85.5464C55.1265 85.5464 50.3255 80.7548 50.2856 71.1701ZM64.8097 81.4598C70.909 81.4598 73.9602 77.9922 73.9602 71.0603C73.9602 64.1284 70.909 60.882 64.8097 60.882C58.7104 60.882 55.6608 64.2748 55.6608 71.0603C55.6608 77.8458 58.7104 81.4598 64.8097 81.4598Z"
       fill="#003660"
       id="path22"
       style="fill:#ffffff" />
    <path
       d="M83.9512 76.6014C83.9512 70.6943 88.0774 67.7407 96.3268 67.7407C99.3668 67.7407 102.019 67.9237 104.287 68.2882V65.5717C104.287 62.4431 101.547 60.8804 96.0668 60.8804C92.9294 60.8804 89.7139 61.3371 86.4218 62.2522V58.1353C89.7139 57.2219 92.9294 56.7636 96.0668 56.7636C105.13 56.7636 109.661 59.8381 109.661 65.9823V85.5719H106.932L104.782 83.5413C102.128 84.8971 99.0096 85.5719 95.4288 85.5719C87.7792 85.5719 83.9544 82.5817 83.9544 76.5998M96.33 71.8544C91.663 71.8544 89.3279 73.4075 89.3279 76.517C89.3279 79.8096 91.3631 81.4566 95.4288 81.4566C99.1467 81.4566 102.101 80.7071 104.289 79.2064V72.4034C102.156 72.0358 99.504 71.8544 96.3284 71.8544"
       fill="#003660"
       id="path23"
       style="fill:#ffffff" />
    <path
       d="M143.036 83.8452C139.338 84.9974 134.778 85.5734 129.355 85.5734C120.273 85.5734 115.732 80.5814 115.732 70.594C115.732 61.3753 120.553 56.7668 130.197 56.7668C132.83 56.7668 135.32 57.2251 137.665 58.1385V46.3418H143.038V83.8468L143.036 83.8452ZM137.663 62.6373C135.494 61.649 133.015 61.1557 130.225 61.1557C124.086 61.1557 121.018 64.2366 121.018 70.4015C121.018 77.701 124.086 81.3484 130.225 81.3484C133.015 81.3484 135.494 80.9919 137.663 80.2774V62.6373Z"
       fill="#003660"
       id="path24"
       style="fill:#ffffff" />
    <path
       d="M150.562 57.946C154.608 57.1582 158.792 56.7652 163.108 56.7652C172.89 56.7652 177.779 61.3308 177.779 70.4556C177.779 80.5336 172.86 85.5734 163.022 85.5734C160.585 85.5734 158.219 85.1167 155.937 84.2017V96H150.562V57.946ZM155.937 79.7013C158.047 80.6896 160.398 81.1829 162.995 81.1829C169.327 81.1829 172.493 77.588 172.493 70.4015C172.493 64.1268 169.346 60.9902 163.054 60.9902C160.342 60.9902 157.969 61.2082 155.937 61.649V79.7013Z"
       fill="#003660"
       id="path25"
       style="fill:#ffffff" />
    <path
       d="M208.309 72.6246H187.773C187.773 78.5142 191.703 81.4582 199.566 81.4582C202.257 81.4582 204.95 81.1829 207.642 80.6323V84.7491C204.95 85.2981 201.678 85.5719 197.823 85.5719C187.542 85.5719 182.399 80.6625 182.399 70.8391C182.399 61.0157 187.269 56.7636 197.01 56.7636C206.75 56.7636 210.111 62.0501 208.309 72.623M187.773 68.3964H203.399C203.672 63.3486 201.251 60.8247 196.137 60.8247C191.024 60.8247 188.121 63.3486 187.773 68.3964Z"
       fill="#003660"
       id="path26"
       style="fill:#ffffff" />
    <path
       d="M214.09 76.6014C214.09 70.6943 218.215 67.7407 226.464 67.7407C229.506 67.7407 232.158 67.9237 234.425 68.2882V65.5717C234.425 62.4431 231.683 60.8804 226.204 60.8804C223.069 60.8804 219.851 61.3371 216.559 62.2522V58.1353C219.851 57.2219 223.069 56.7636 226.204 56.7636C235.269 56.7636 239.799 59.8381 239.799 65.9823V85.5719H237.066L234.918 83.5413C232.264 84.8971 229.146 85.5719 225.565 85.5719C217.915 85.5719 214.09 82.5817 214.09 76.5998M226.464 71.8544C221.797 71.8544 219.465 73.4075 219.465 76.517C219.465 79.8096 221.499 81.4566 225.566 81.4566C229.283 81.4566 232.237 80.7071 234.427 79.2064V72.4034C232.296 72.0358 229.642 71.8544 226.466 71.8544"
       fill="#003660"
       id="path27"
       style="fill:#ffffff" />
    <path
       d="M256.565 69.8031C261.24 68.1163 267.808 64.8779 272.857 58.9756L268.966 56.7843C263.689 62.8203 256.084 65.5717 252.697 66.5536V46.3482H247.322V85.575H252.697V72.9365L267.54 85.575H274.421L256.567 69.8047L256.565 69.8031Z"
       fill="#003660"
       id="path28"
       style="fill:#ffffff" />
  </g>
  <defs
     id="defs28">
    <clipPath
       id="clip0_325_1053">
      <rect
         width="319"
         height="96"
         fill="white"
         id="rect28" />
    </clipPath>
  </defs>
</svg>
